<svg width="1128" height="191" viewBox="0 0 1128 191" xmlns="http://www.w3.org/2000/svg">
  <rect width="1128" height="191" fill="#0A0A0A"/>

  <!-- Volume Meter - left side with padding, 10 segments -->
  <g transform="translate(25, 20)">
    <!-- Dim segments (top 3) -->
    <rect x="0" y="0" width="20" height="12" rx="1" fill="rgba(255,255,255,0.1)"/>
    <rect x="0" y="16" width="20" height="12" rx="1" fill="rgba(255,255,255,0.1)"/>
    <rect x="0" y="32" width="20" height="12" rx="1" fill="rgba(255,255,255,0.1)"/>
    <!-- Lit segments (bottom 7) -->
    <rect x="0" y="48" width="20" height="12" rx="1" fill="#5B8A9A" opacity="0.6"/>
    <rect x="0" y="64" width="20" height="12" rx="1" fill="#5B8A9A" opacity="0.7"/>
    <rect x="0" y="80" width="20" height="12" rx="1" fill="#5B8A9A" opacity="0.75"/>
    <rect x="0" y="96" width="20" height="12" rx="1" fill="#5B8A9A" opacity="0.8"/>
    <rect x="0" y="112" width="20" height="12" rx="1" fill="#5B8A9A" opacity="0.85"/>
    <rect x="0" y="128" width="20" height="12" rx="1" fill="#5B8A9A" opacity="0.9"/>
    <rect x="0" y="144" width="20" height="12" rx="1" fill="#5B8A9A" opacity="1"/>
  </g>

  <!-- Dial rings on bottom-right - more visible -->
  <g opacity="0.38" stroke="#EDEDED" stroke-width="2" fill="none">
    <circle cx="1080" cy="191" r="50"/>
    <circle cx="1080" cy="191" r="85"/>
    <circle cx="1080" cy="191" r="120"/>
    <circle cx="1080" cy="191" r="155"/>
  </g>

  <!-- Tagline - right aligned -->
  <text x="1068" y="100" text-anchor="end" font-family="Inter, system-ui, sans-serif" font-size="20" fill="#888888">AI-Powered Products &amp; Business Systems</text>
</svg>
