<svg width="1128" height="191" viewBox="0 0 1128 191" xmlns="http://www.w3.org/2000/svg">
  <rect width="1128" height="191" fill="#0A0A0A"/>

  <!-- Volume Meter - top-left area, 12px padding -->
  <g transform="translate(12, 15)">
    <!-- Dim segments (top 3) -->
    <rect x="0" y="0" width="18" height="11" rx="1" fill="rgba(255,255,255,0.1)"/>
    <rect x="0" y="14" width="18" height="11" rx="1" fill="rgba(255,255,255,0.1)"/>
    <rect x="0" y="28" width="18" height="11" rx="1" fill="rgba(255,255,255,0.1)"/>
    <!-- Lit segments (bottom 7) -->
    <rect x="0" y="42" width="18" height="11" rx="1" fill="#5B8A9A" opacity="0.6"/>
    <rect x="0" y="56" width="18" height="11" rx="1" fill="#5B8A9A" opacity="0.7"/>
    <rect x="0" y="70" width="18" height="11" rx="1" fill="#5B8A9A" opacity="0.75"/>
    <rect x="0" y="84" width="18" height="11" rx="1" fill="#5B8A9A" opacity="0.8"/>
    <rect x="0" y="98" width="18" height="11" rx="1" fill="#5B8A9A" opacity="0.85"/>
    <rect x="0" y="112" width="18" height="11" rx="1" fill="#5B8A9A" opacity="0.9"/>
    <rect x="0" y="126" width="18" height="11" rx="1" fill="#5B8A9A" opacity="1"/>
  </g>

  <!-- Dial rings on bottom-right - 6 rings, 27% opacity -->
  <g opacity="0.27" stroke="#EDEDED" stroke-width="2" fill="none">
    <circle cx="1080" cy="191" r="40"/>
    <circle cx="1080" cy="191" r="70"/>
    <circle cx="1080" cy="191" r="100"/>
    <circle cx="1080" cy="191" r="130"/>
    <circle cx="1080" cy="191" r="160"/>
    <circle cx="1080" cy="191" r="190"/>
  </g>

  <!-- Tagline - centered horizontally and vertically -->
  <text x="564" y="100" text-anchor="middle" font-family="Inter, system-ui, sans-serif" font-size="20" fill="#888888">AI-Powered Products &amp; Business Systems</text>
</svg>
